<svg width="36" height="37" viewBox="0 0 36 37" fill="none" xmlns="http://www.w3.org/2000/svg">
<path d="M32.7083 15.4806H31.5V15.4166H18V21.5833H26.4773C25.2405 25.1731 21.9172 27.75 18 27.75C13.0297 27.75 9 23.6083 9 18.5C9 13.3917 13.0297 9.24998 18 9.24998C20.2943 9.24998 22.3815 10.1395 23.9708 11.5925L28.2135 7.23194C25.5345 4.66583 21.951 3.08331 18 3.08331C9.71625 3.08331 3 9.98612 3 18.5C3 27.0138 9.71625 33.9166 18 33.9166C26.2838 33.9166 33 27.0138 33 18.5C33 17.4663 32.8965 16.4573 32.7083 15.4806Z" fill="#FFC107"/>
<path d="M4.72949 11.3243L9.65774 15.0389C10.9912 11.6457 14.2207 9.24998 18 9.24998C20.2942 9.24998 22.3815 10.1395 23.9707 11.5925L28.2135 7.23194C25.5345 4.66583 21.951 3.08331 18 3.08331C12.2385 3.08331 7.24199 6.42642 4.72949 11.3243Z" fill="#FF3D00"/>
<path d="M18.0002 33.9166C21.8747 33.9166 25.3952 32.3927 28.057 29.9145L23.4145 25.8769C21.9085 27.0493 20.0365 27.75 18.0002 27.75C14.0987 27.75 10.786 25.1931 9.53798 21.6249L4.64648 25.4984C7.12898 30.4911 12.1705 33.9166 18.0002 33.9166Z" fill="#4CAF50"/>
<path d="M32.7083 15.4807H31.5V15.4167H18V21.5834H26.4773C25.8833 23.3077 24.804 24.7946 23.412 25.8777C23.4128 25.8769 23.4135 25.8769 23.4143 25.8761L28.0568 29.9137C27.7283 30.2205 33 26.2084 33 18.5C33 17.4663 32.8965 16.4573 32.7083 15.4807Z" fill="#1976D2"/>
</svg>
